<svg xmlns="http://www.w3.org/2000/svg" viewBox="0 0 1920 335"><path fill="#782402" d="M1920 76.8L0 76.6v204.2C495.9 340.5 769.2 170.3 1468.9 180c216.8 3 353.2 20.9 451.1 39.7V76.8z"/><linearGradient id="a" x1="14.3" x2="1894" y1="-67.3" y2="332.3" gradientUnits="userSpaceOnUse"><stop offset="0" stop-color="#93070a"/><stop offset=".3" stop-color="#e01837"/><stop offset=".7" stop-color="#e01837"/><stop offset="1" stop-color="#93070a"/></linearGradient><path fill="url(#a)" d="M1920 0H0v267.5c192.1 19.9 340.3 8.8 419 3 195.5-14.4 634.1-99.5 1023.1-95.5 225.1 2.3 395.2 22.7 477.9 35V0z"/><path fill="#d49e0f" d="M1920 186.4a89.5 89.5 0 0 0-45.8-6.4c-37.7 4.3-61.3 22.1-84.1 39.3-26.4 19.9-51.3 38.7-95.4 35-32.5-2.7-76-17.4-126.4-34.4-76.2-25.7-162.5-54.8-241.1-52.8-78.8 2-184.7 28-287.1 53.2-102.4 25.1-208.2 51.1-287 53.1-74.5 1.9-151.7-24.3-219.8-47.5-51.8-17.6-96.5-32.8-131.8-33.3h-3.4c-53.6 0-83.4 19.7-124.3 46.7-12.8 8.4-27.2 18-43.6 27.7-55 32.4-128.2 49-230.3 52.2v.8c102.2-3.2 175.6-19.8 230.7-52.3 16.4-9.7 30.9-19.3 43.7-27.7 41.6-27.5 71.6-47.3 127.1-46.5 35.1.5 79.8 15.7 131.5 33.3 68.2 23.2 145.5 49.5 220.1 47.5 78.8-2 184.7-28 287.1-53.2 102.4-25.1 208.2-51.1 287-53.1 78.3-2 164.7 27.1 240.8 52.7 50.4 17 93.9 31.6 126.6 34.4 44.5 3.7 69.5-15.2 96-35.2 22.7-17.2 46.2-34.9 83.7-39.2 15.8-1.8 30.4.3 45.7 6.5v-.8z"/><path fill="#57181b" d="M1920 178.3c-11.9 7.8-22.5 16.5-33.8 25.7-39.4 32.2-80.1 65.5-181.3 66-153.7.7-229.2-23-302.2-46-34.7-10.9-70.6-22.2-114.2-30.5a877.6 877.6 0 0 0-164.8-13.8c-338.8 0-417.8 29.9-470.1 49.7-24.7 9.4-42.6 16.2-79.3 16.2-66.9 0-129.4-32.3-189.8-63.4-59.6-30.7-121.2-62.5-186.1-62.5-50.3 0-117 14-198.3 41.6v.6c81.4-27.6 148.1-41.6 198.3-41.6 64.8 0 126.3 31.7 185.8 62.4 60.5 31.2 123.1 63.5 190.1 63.5 36.8 0 54.7-6.8 79.5-16.2 52.2-19.8 131.2-49.7 469.9-49.7 138.2 0 206.5 21.5 278.9 44.3 72 22.6 146.3 46 295.6 46h6.7c45.4-.2 82.8-7.2 114.4-21.4 27.9-12.5 48-28.9 67.3-44.8A397.5 397.5 0 0 1 1920 179v-.7z"/><path fill="#883001" d="M1920 254.9a214.8 214.8 0 0 1-65.1 9.8c-36.3 0-52.2-19.2-67.6-37.8-15.1-18.2-29.3-35.4-61-35.4-46.8 0-82.7 27.2-114.3 51.1-26.6 20.2-51.8 39.2-79.3 39.3h-.1c-5.9 0-9.8-1.6-12-5-6.8-10.4 4.2-35.3 15.9-61.7 12.5-28.4 25.5-57.7 16.8-71-3.2-4.9-9.2-7.4-17.9-7.4-19.8 0-42.9 22.4-69.6 48.4-31.9 31-68 66.1-105.3 67.4-17.6.6-25.5-14.2-35.6-33.1-8.3-15.5-17.7-33-34.8-45.8-19.7-14.8-46-20.1-80.3-16.3-52 5.7-85.6 28.2-118.1 50-32.4 21.7-66 44.1-117.8 49.9-77.2 8.5-124-10.9-161.6-26.4-22.6-9.4-42.1-17.4-63.2-17.4h-.1c-37.9 0-75.8 26.1-109.1 49.1-27.3 18.8-50.9 35.1-70.2 35.1h-.1c-3.7 0-6-1-7-3-4.3-8.5 14.2-33.5 33.8-59.9 21.9-29.5 44.5-60 38.5-71.9-1.7-3.4-5.6-5.1-11.6-5.2h-.6c-24.5 0-48.2 18.2-73.4 37.4-32.2 24.6-68.6 52.5-116.2 51.4-13.1-.3-16.1-8.2-19.3-16.7-4.5-12-9.2-24.5-42.7-17-20.4 4.6-39.1 21-60.7 40.1-42.9 37.9-96.4 85.1-201.1 81.3-44.9-1.6-83.7-26-109.6-44.7v.9c25.9 18.8 64.7 42.9 109.6 44.6l11.8.2a244 244 0 0 0 112.7-25.6c32-16.2 56-37.4 77.2-56.1 21.5-19 40.1-35.4 60.3-39.9 32.9-7.4 37.4 4.8 41.8 16.5 3.2 8.6 6.3 16.8 19.9 17.1h2.7c46.5 0 82.3-27.4 114-51.6 26.1-20 48.7-37.2 72.9-37.2h.6c5.7.1 9.4 1.7 11 4.8 5.8 11.6-16.7 41.9-38.5 71.2-19.7 26.6-38.4 51.7-33.9 60.6 1.1 2.3 3.7 3.4 7.6 3.4h.1c19.5 0 43.2-16.3 70.6-35.2 33.3-22.9 71-48.9 108.7-49h.1c20.9 0 40.3 8.1 62.9 17.4 37.7 15.6 84.6 35 161.9 26.5 52-5.7 85.6-28.2 118.1-50 32.4-21.7 66-44.1 117.8-49.8 76.7-8.5 97.6 30.5 114.3 61.7 9.6 17.9 17.9 33.5 35.2 33.5h1.1c37.6-1.4 73.9-36.6 105.8-67.6 26.6-25.9 49.6-48.2 69.1-48.2 8.5 0 14.2 2.3 17.3 7 8.5 13-4.4 42.2-16.8 70.4-11.7 26.6-22.8 51.6-15.8 62.3 2.3 3.5 6.6 5.3 12.6 5.3h.1c27.7-.1 53-19.2 79.7-39.4 31.6-23.9 67.4-51 113.9-51 31.4 0 45.5 17.1 60.4 35.1 15.5 18.7 31.5 38 68.1 38 22.7 0 44-3.2 65.1-9.8v-.7z"/></svg>