<svg xmlns="http://www.w3.org/2000/svg" viewBox="0 0 1366 170"><path fill="#fff" d="M0 170h1366V50.4c-137.2-14.6-242.7-6.5-298.9-2.3-138.9 10.4-450.4 71.6-726.8 68.7A2470.7 2470.7 0 0 1 0 91.4V170z"/><path fill="#7a2500" d="M340.4 117c276.4 2.9 587.9-58.3 726.8-68.7 56.1-4.2 161.8-12.2 298.9 2.3v-9.4c-353-43.3-547 79-1044.5 72C166.5 111 69.6 98 0 84.5v7.1c58.3 8.8 179.3 23.7 340.4 25.4z"/><path fill="#591811" d="M1226.6 152.9c-46.1 0-90.6-22-133.6-43.3-43.6-21.6-88.8-44-136.2-44-26 0-38.7 4.9-56.3 11.6-37.1 14.2-93.2 35.6-333.8 35.6-44.1 0-82.3-3.2-117-9.9-31-5.9-56.5-14-81.1-21.8-51.1-16.2-103.8-32.9-209.8-32.9H154c-71.8.3-100.8 24.2-128.7 47.2A268 268 0 0 1 .2 114.5l-.2-.3c8.9-5.8 16.7-12.2 25-19.1 13.8-11.3 28-23.1 47.8-32 22.4-10.1 49-15.2 81.2-15.3h4.8c106 0 158.8 16.7 209.9 33 51.4 16.3 99.9 31.7 198 31.7 240.5 0 296.5-21.4 333.6-35.6 17.6-6.7 30.3-11.6 56.4-11.6 47.6 0 92.7 22.4 136.4 44 43 21.3 87.4 43.3 133.4 43.3 35.6 0 82.4-9.6 139.3-28.5l.1.4c-56.8 18.8-103.7 28.4-139.3 28.4z"/><path fill="#d7a400" d="M416.7 121.6c-54.3 0-113.3-20.1-165.7-37.9-35.7-12.1-66.6-22.6-89.7-24.6-31.3-2.7-49 10.8-67.7 25.1-16.2 12.3-33 25.1-59.7 28.2a64 64 0 0 1-33.8-5.1l.2-.6a64 64 0 0 0 33.5 5.1c26.5-3 43.2-15.8 59.4-28 18.8-14.3 36.6-27.9 68.2-25.2 23.2 2 54.1 12.5 89.9 24.6 54.1 18.4 115.3 39.2 171 37.7 55.9-1.4 131.1-20 203.7-38 72.7-18 147.9-36.6 203.9-38.1 53-1.4 107.9 17.4 156.3 34 36.7 12.6 68.4 23.5 93.4 23.8 39.4.6 60.7-13.6 90.3-33.3 9.1-6 19.3-12.9 31-19.8 39.4-23.4 91.9-35.3 165.3-37.5v.6c-73.3 2.2-125.7 14.1-165 37.4-11.7 6.9-21.9 13.8-31 19.8-29.6 19.7-51 34-90.6 33.4-25-.4-56.8-11.3-93.5-23.9-48.4-16.6-103.2-35.4-156.1-34-55.9 1.4-131.1 20-203.7 38-72.7 18-147.9 36.6-203.9 38.1-2.1.2-3.9.2-5.7.2z"/><path fill="#873000" d="M274.4 141.8c-6.2 0-10.4-1.8-12.7-5.3-6.2-9.6 3-30.5 11.9-50.8 8.3-18.9 16.1-36.7 11.3-44.2-1.6-2.4-4.4-3.6-8.6-3.6-19.5.1-37.4 13.7-56.3 28.1-22.5 17.2-48 36.6-81.2 36.6-22.5 0-32.6-12.3-43.3-25.3-10.9-13.3-22.2-27.1-48-27.1A151 151 0 0 0 .1 57.6l-.1-.4c15.4-5 31-7.4 47.5-7.4 26 0 37.4 13.8 48.3 27.2 10.6 12.9 20.6 25.2 42.9 25.2 33 0 58.4-19.4 80.9-36.5 19-14.5 36.9-28.2 56.6-28.2h.1c4.3 0 7.3 1.3 9 3.8 5 7.7-2.9 25.6-11.2 44.6-8.8 20.2-18 41-11.9 50.4 2.2 3.4 6.2 5 12.3 5 13.8 0 30.2-16 49.1-34.5 22.7-22.2 48.4-47.4 75.1-48.4 12.8-.5 18.8 10.8 25.7 23.9 11.9 22.4 26.7 50.2 81.2 44.2 36.8-4.1 60.6-20.2 83.6-35.7C612.3 75.2 636.1 59.1 673 55c54.9-6.1 88.2 7.8 114.9 19 16 6.7 29.8 12.5 44.6 12.5h.1c26.8 0 53.6-18.6 77.2-35.1 19.5-13.5 36.3-25.2 50.1-25.2h.1c2.8 0 4.6.8 5.4 2.4C968.6 35 955.3 53 941.3 72c-15.4 21-31.4 42.7-27.3 51 1.1 2.2 3.7 3.4 7.8 3.4h.4c17.2 0 33.2-12.4 51.8-26.7 22.9-17.7 48.9-37.7 82.8-36.9 9.7.2 11.8 6.1 14.1 12.3 3.1 8.4 6.4 17.1 29.7 11.8 14.4-3.2 27.6-15 42.8-28.6 15-13.4 32.1-28.5 54.8-40.1A176 176 0 0 1 1286.6 0c32.7 1.2 60.9 19.5 79.3 33.1l-.3.4c-18.4-13.6-46.5-31.8-79-33-74.4-2.7-112.3 31-142.8 58.2-15.3 13.6-28.6 25.4-43.1 28.7-23.8 5.4-27.1-3.5-30.3-12.2-2.2-6-4.4-11.7-13.7-11.9-33.8-.8-59.7 19.2-82.5 36.8-18 13.9-35 27-52.5 26.8-4.3 0-7.1-1.3-8.3-3.7-4.2-8.6 11.8-30.4 27.4-51.5C954.9 52.9 968 35 965 28.9c-.7-1.5-2.3-2.2-5-2.2h-.1c-13.7 0-30.5 11.6-49.8 25.1C886.4 68.3 859.5 87 832.6 87h-.1c-14.9 0-28.8-5.8-44.8-12.5-26.7-11.1-59.9-25-114.7-18.9-36.8 4.1-60.6 20.2-83.6 35.7-23.1 15.6-46.9 31.7-83.8 35.8-24.3 2.7-43-1.1-57-11.7a92.3 92.3 0 0 1-24.7-32.8c-7.2-13.5-12.8-24.2-25.3-23.7-26.5 1-52.2 26.1-74.8 48.3-19 18.6-35.4 34.6-49.4 34.6z"/></svg>